<mxfile host="app.diagrams.net" modified="2024-04-14T05:17:33.594Z" agent="Mozilla/5.0 (Macintosh; Intel Mac OS X 10_15_7) AppleWebKit/605.1.15 (KHTML, like Gecko) Version/17.4.1 Safari/605.1.15" etag="7PVB7GolKpotfIeqCwmw" version="24.2.5" type="github">
  <diagram name="Seite-1" id="lXLUoxlUJstlcaYJpN0m">
    <mxGraphModel dx="2074" dy="1162" grid="1" gridSize="10" guides="1" tooltips="1" connect="1" arrows="1" fold="1" page="1" pageScale="1" pageWidth="827" pageHeight="1169" math="0" shadow="0">
      <root>
        <mxCell id="0" />
        <mxCell id="1" parent="0" />
        <mxCell id="XwEBAa-x7R_5Xj_vNGc--103" value="" style="group" parent="1" vertex="1" connectable="0">
          <mxGeometry x="60" y="210" width="1120" height="800" as="geometry" />
        </mxCell>
        <mxCell id="XwEBAa-x7R_5Xj_vNGc--102" value="" style="rounded=0;whiteSpace=wrap;html=1;fillColor=none;" parent="XwEBAa-x7R_5Xj_vNGc--103" vertex="1">
          <mxGeometry width="1120" height="800" as="geometry" />
        </mxCell>
        <mxCell id="XwEBAa-x7R_5Xj_vNGc--14" value="" style="group" parent="XwEBAa-x7R_5Xj_vNGc--103" vertex="1" connectable="0">
          <mxGeometry x="410" y="40" width="180" height="110" as="geometry" />
        </mxCell>
        <mxCell id="XwEBAa-x7R_5Xj_vNGc--13" value="" style="rounded=0;whiteSpace=wrap;html=1;" parent="XwEBAa-x7R_5Xj_vNGc--14" vertex="1">
          <mxGeometry x="-10" width="190" height="110" as="geometry" />
        </mxCell>
        <mxCell id="XwEBAa-x7R_5Xj_vNGc--86" value="" style="group" parent="XwEBAa-x7R_5Xj_vNGc--14" vertex="1" connectable="0">
          <mxGeometry x="12.039999999999964" y="20" width="60" height="80" as="geometry" />
        </mxCell>
        <mxCell id="XwEBAa-x7R_5Xj_vNGc--12" value="" style="aspect=fixed;sketch=0;html=1;dashed=0;whitespace=wrap;fillColor=#2875E2;strokeColor=#ffffff;points=[[0.005,0.63,0],[0.1,0.2,0],[0.9,0.2,0],[0.5,0,0],[0.995,0.63,0],[0.72,0.99,0],[0.5,1,0],[0.28,0.99,0]];shape=mxgraph.kubernetes.icon2;kubernetesLabel=1;prIcon=secret" parent="XwEBAa-x7R_5Xj_vNGc--86" vertex="1">
          <mxGeometry x="3.9600000000000364" width="52.08" height="50" as="geometry" />
        </mxCell>
        <mxCell id="XwEBAa-x7R_5Xj_vNGc--47" value="&lt;font style=&quot;font-size: 11px;&quot; face=&quot;Helvetica&quot;&gt;Secret&lt;/font&gt;" style="text;html=1;align=center;verticalAlign=middle;whiteSpace=wrap;rounded=0;fontSize=11;" parent="XwEBAa-x7R_5Xj_vNGc--86" vertex="1">
          <mxGeometry y="50" width="60" height="30" as="geometry" />
        </mxCell>
        <mxCell id="XwEBAa-x7R_5Xj_vNGc--87" value="" style="group" parent="XwEBAa-x7R_5Xj_vNGc--14" vertex="1" connectable="0">
          <mxGeometry x="90.99999999999994" y="21" width="60" height="78" as="geometry" />
        </mxCell>
        <mxCell id="XwEBAa-x7R_5Xj_vNGc--11" value="" style="aspect=fixed;sketch=0;html=1;dashed=0;whitespace=wrap;fillColor=#2875E2;strokeColor=#ffffff;points=[[0.005,0.63,0],[0.1,0.2,0],[0.9,0.2,0],[0.5,0,0],[0.995,0.63,0],[0.72,0.99,0],[0.5,1,0],[0.28,0.99,0]];shape=mxgraph.kubernetes.icon2;kubernetesLabel=1;prIcon=cm" parent="XwEBAa-x7R_5Xj_vNGc--87" vertex="1">
          <mxGeometry x="5.000000000000057" width="50" height="48" as="geometry" />
        </mxCell>
        <mxCell id="XwEBAa-x7R_5Xj_vNGc--48" value="&lt;font style=&quot;font-size: 11px;&quot; face=&quot;Helvetica&quot;&gt;Config Map&lt;/font&gt;" style="text;html=1;align=center;verticalAlign=middle;whiteSpace=wrap;rounded=0;fontSize=11;" parent="XwEBAa-x7R_5Xj_vNGc--87" vertex="1">
          <mxGeometry y="48" width="60" height="30" as="geometry" />
        </mxCell>
        <mxCell id="XwEBAa-x7R_5Xj_vNGc--85" value="" style="group" parent="XwEBAa-x7R_5Xj_vNGc--103" vertex="1" connectable="0">
          <mxGeometry x="469.99999999999994" y="240" width="60.00000000000006" height="78" as="geometry" />
        </mxCell>
        <mxCell id="XwEBAa-x7R_5Xj_vNGc--15" value="" style="aspect=fixed;sketch=0;html=1;dashed=0;whitespace=wrap;fillColor=#2875E2;strokeColor=#ffffff;points=[[0.005,0.63,0],[0.1,0.2,0],[0.9,0.2,0],[0.5,0,0],[0.995,0.63,0],[0.72,0.99,0],[0.5,1,0],[0.28,0.99,0]];shape=mxgraph.kubernetes.icon2;prIcon=pod" parent="XwEBAa-x7R_5Xj_vNGc--85" vertex="1">
          <mxGeometry x="5.000000000000057" width="50" height="48" as="geometry" />
        </mxCell>
        <mxCell id="XwEBAa-x7R_5Xj_vNGc--49" value="&lt;font style=&quot;font-size: 11px;&quot; face=&quot;Helvetica&quot;&gt;Pod&lt;/font&gt;" style="text;html=1;align=center;verticalAlign=middle;whiteSpace=wrap;rounded=0;fontSize=11;" parent="XwEBAa-x7R_5Xj_vNGc--85" vertex="1">
          <mxGeometry y="48" width="60" height="30" as="geometry" />
        </mxCell>
        <mxCell id="XwEBAa-x7R_5Xj_vNGc--88" value="" style="group" parent="XwEBAa-x7R_5Xj_vNGc--103" vertex="1" connectable="0">
          <mxGeometry x="19.999999999999943" y="700" width="60" height="78" as="geometry" />
        </mxCell>
        <mxCell id="XwEBAa-x7R_5Xj_vNGc--1" value="" style="aspect=fixed;sketch=0;html=1;dashed=0;whitespace=wrap;fillColor=#2875E2;strokeColor=#ffffff;points=[[0.005,0.63,0],[0.1,0.2,0],[0.9,0.2,0],[0.5,0,0],[0.995,0.63,0],[0.72,0.99,0],[0.5,1,0],[0.28,0.99,0]];shape=mxgraph.kubernetes.icon2;prIcon=api" parent="XwEBAa-x7R_5Xj_vNGc--88" vertex="1">
          <mxGeometry x="5.000000000000057" width="50" height="48" as="geometry" />
        </mxCell>
        <mxCell id="XwEBAa-x7R_5Xj_vNGc--54" value="Namespace" style="text;html=1;align=center;verticalAlign=middle;whiteSpace=wrap;rounded=0;fontSize=11;" parent="XwEBAa-x7R_5Xj_vNGc--88" vertex="1">
          <mxGeometry y="48" width="60" height="30" as="geometry" />
        </mxCell>
        <mxCell id="XwEBAa-x7R_5Xj_vNGc--96" value="" style="group" parent="XwEBAa-x7R_5Xj_vNGc--103" vertex="1" connectable="0">
          <mxGeometry x="40" y="40" width="260" height="380" as="geometry" />
        </mxCell>
        <mxCell id="XwEBAa-x7R_5Xj_vNGc--9" value="" style="rounded=0;whiteSpace=wrap;html=1;fillColor=none;" parent="XwEBAa-x7R_5Xj_vNGc--96" vertex="1">
          <mxGeometry width="260" height="380" as="geometry" />
        </mxCell>
        <mxCell id="XwEBAa-x7R_5Xj_vNGc--2" value="" style="aspect=fixed;sketch=0;html=1;dashed=0;whitespace=wrap;fillColor=#2875E2;strokeColor=#ffffff;points=[[0.005,0.63,0],[0.1,0.2,0],[0.9,0.2,0],[0.5,0,0],[0.995,0.63,0],[0.72,0.99,0],[0.5,1,0],[0.28,0.99,0]];shape=mxgraph.kubernetes.icon2;prIcon=job" parent="XwEBAa-x7R_5Xj_vNGc--96" vertex="1">
          <mxGeometry x="150" y="109" width="50" height="48" as="geometry" />
        </mxCell>
        <mxCell id="XwEBAa-x7R_5Xj_vNGc--6" value="" style="aspect=fixed;sketch=0;html=1;dashed=0;whitespace=wrap;fillColor=#2875E2;strokeColor=#ffffff;points=[[0.005,0.63,0],[0.1,0.2,0],[0.9,0.2,0],[0.5,0,0],[0.995,0.63,0],[0.72,0.99,0],[0.5,1,0],[0.28,0.99,0]];shape=mxgraph.kubernetes.icon2;kubernetesLabel=1;prIcon=ds" parent="XwEBAa-x7R_5Xj_vNGc--96" vertex="1">
          <mxGeometry x="150" y="29" width="50" height="48" as="geometry" />
        </mxCell>
        <mxCell id="XwEBAa-x7R_5Xj_vNGc--40" value="" style="group" parent="XwEBAa-x7R_5Xj_vNGc--96" vertex="1" connectable="0">
          <mxGeometry x="145" y="281" width="60" height="78" as="geometry" />
        </mxCell>
        <mxCell id="XwEBAa-x7R_5Xj_vNGc--8" value="" style="aspect=fixed;sketch=0;html=1;dashed=0;whitespace=wrap;fillColor=#2875E2;strokeColor=#ffffff;points=[[0.005,0.63,0],[0.1,0.2,0],[0.9,0.2,0],[0.5,0,0],[0.995,0.63,0],[0.72,0.99,0],[0.5,1,0],[0.28,0.99,0]];shape=mxgraph.kubernetes.icon2;prIcon=sts" parent="XwEBAa-x7R_5Xj_vNGc--40" vertex="1">
          <mxGeometry x="5" width="50" height="48" as="geometry" />
        </mxCell>
        <mxCell id="XwEBAa-x7R_5Xj_vNGc--39" value="&lt;p style=&quot;line-height: 100%; font-size: 11px;&quot;&gt;&lt;font style=&quot;font-size: 11px;&quot; face=&quot;helvetica neue&quot;&gt;Stateful Set&lt;/font&gt;&lt;/p&gt;" style="text;html=1;align=center;verticalAlign=middle;whiteSpace=wrap;rounded=0;fontSize=11;" parent="XwEBAa-x7R_5Xj_vNGc--40" vertex="1">
          <mxGeometry y="48" width="60" height="30" as="geometry" />
        </mxCell>
        <mxCell id="XwEBAa-x7R_5Xj_vNGc--42" value="" style="group" parent="XwEBAa-x7R_5Xj_vNGc--96" vertex="1" connectable="0">
          <mxGeometry x="145" y="199" width="60" height="77" as="geometry" />
        </mxCell>
        <mxCell id="XwEBAa-x7R_5Xj_vNGc--3" value="" style="aspect=fixed;sketch=0;html=1;dashed=0;whitespace=wrap;fillColor=#2875E2;strokeColor=#ffffff;points=[[0.005,0.63,0],[0.1,0.2,0],[0.9,0.2,0],[0.5,0,0],[0.995,0.63,0],[0.72,0.99,0],[0.5,1,0],[0.28,0.99,0]];shape=mxgraph.kubernetes.icon2;prIcon=rs" parent="XwEBAa-x7R_5Xj_vNGc--42" vertex="1">
          <mxGeometry x="5" width="50" height="48" as="geometry" />
        </mxCell>
        <mxCell id="XwEBAa-x7R_5Xj_vNGc--41" value="&lt;font style=&quot;font-size: 11px;&quot; face=&quot;Helvetica&quot;&gt;Replica Set&lt;/font&gt;" style="text;html=1;align=center;verticalAlign=middle;whiteSpace=wrap;rounded=0;fontSize=11;" parent="XwEBAa-x7R_5Xj_vNGc--42" vertex="1">
          <mxGeometry y="47" width="60" height="30" as="geometry" />
        </mxCell>
        <mxCell id="XwEBAa-x7R_5Xj_vNGc--43" value="&lt;font style=&quot;font-size: 11px;&quot; face=&quot;Helvetica&quot;&gt;Job&lt;/font&gt;" style="text;html=1;align=center;verticalAlign=middle;whiteSpace=wrap;rounded=0;fontSize=11;" parent="XwEBAa-x7R_5Xj_vNGc--96" vertex="1">
          <mxGeometry x="145" y="157" width="60" height="30" as="geometry" />
        </mxCell>
        <mxCell id="XwEBAa-x7R_5Xj_vNGc--44" value="&lt;font style=&quot;font-size: 11px;&quot; face=&quot;Helvetica&quot;&gt;DaemonSet&lt;/font&gt;" style="text;html=1;align=center;verticalAlign=middle;whiteSpace=wrap;rounded=0;fontSize=11;" parent="XwEBAa-x7R_5Xj_vNGc--96" vertex="1">
          <mxGeometry x="145" y="77" width="60" height="30" as="geometry" />
        </mxCell>
        <mxCell id="XwEBAa-x7R_5Xj_vNGc--90" value="" style="group" parent="XwEBAa-x7R_5Xj_vNGc--96" vertex="1" connectable="0">
          <mxGeometry x="35" y="281" width="60" height="78" as="geometry" />
        </mxCell>
        <mxCell id="XwEBAa-x7R_5Xj_vNGc--5" value="" style="aspect=fixed;sketch=0;html=1;dashed=0;whitespace=wrap;fillColor=#2875E2;strokeColor=#ffffff;points=[[0.005,0.63,0],[0.1,0.2,0],[0.9,0.2,0],[0.5,0,0],[0.995,0.63,0],[0.72,0.99,0],[0.5,1,0],[0.28,0.99,0]];shape=mxgraph.kubernetes.icon2;kubernetesLabel=1;prIcon=deploy" parent="XwEBAa-x7R_5Xj_vNGc--90" vertex="1">
          <mxGeometry x="5" width="50" height="48" as="geometry" />
        </mxCell>
        <mxCell id="XwEBAa-x7R_5Xj_vNGc--45" value="&lt;font style=&quot;font-size: 11px;&quot; face=&quot;Helvetica&quot;&gt;Deployment&lt;/font&gt;" style="text;html=1;align=center;verticalAlign=middle;whiteSpace=wrap;rounded=0;fontSize=11;" parent="XwEBAa-x7R_5Xj_vNGc--90" vertex="1">
          <mxGeometry y="48" width="60" height="30" as="geometry" />
        </mxCell>
        <mxCell id="XwEBAa-x7R_5Xj_vNGc--91" value="" style="group" parent="XwEBAa-x7R_5Xj_vNGc--96" vertex="1" connectable="0">
          <mxGeometry x="35" y="109" width="60" height="84" as="geometry" />
        </mxCell>
        <mxCell id="XwEBAa-x7R_5Xj_vNGc--4" value="" style="aspect=fixed;sketch=0;html=1;dashed=0;whitespace=wrap;fillColor=#2875E2;strokeColor=#ffffff;points=[[0.005,0.63,0],[0.1,0.2,0],[0.9,0.2,0],[0.5,0,0],[0.995,0.63,0],[0.72,0.99,0],[0.5,1,0],[0.28,0.99,0]];shape=mxgraph.kubernetes.icon2;prIcon=hpa" parent="XwEBAa-x7R_5Xj_vNGc--91" vertex="1">
          <mxGeometry x="5" width="50" height="48" as="geometry" />
        </mxCell>
        <mxCell id="XwEBAa-x7R_5Xj_vNGc--46" value="&lt;p style=&quot;line-height: 100%;&quot;&gt;&lt;font face=&quot;Helvetica&quot; style=&quot;font-size: 11px;&quot;&gt;Horizontal Pod Autoscaler&lt;/font&gt;&lt;/p&gt;" style="text;html=1;align=center;verticalAlign=middle;whiteSpace=wrap;rounded=0;fontSize=11;" parent="XwEBAa-x7R_5Xj_vNGc--91" vertex="1">
          <mxGeometry y="54" width="60" height="30" as="geometry" />
        </mxCell>
        <mxCell id="XwEBAa-x7R_5Xj_vNGc--115" style="edgeStyle=orthogonalEdgeStyle;rounded=0;orthogonalLoop=1;jettySize=auto;html=1;exitX=0.995;exitY=0.63;exitDx=0;exitDy=0;exitPerimeter=0;entryX=0.005;entryY=0.63;entryDx=0;entryDy=0;entryPerimeter=0;" parent="XwEBAa-x7R_5Xj_vNGc--96" source="XwEBAa-x7R_5Xj_vNGc--5" target="XwEBAa-x7R_5Xj_vNGc--8" edge="1">
          <mxGeometry relative="1" as="geometry" />
        </mxCell>
        <mxCell id="XwEBAa-x7R_5Xj_vNGc--118" style="edgeStyle=orthogonalEdgeStyle;rounded=0;orthogonalLoop=1;jettySize=auto;html=1;exitX=0.5;exitY=1;exitDx=0;exitDy=0;entryX=0.5;entryY=0;entryDx=0;entryDy=0;entryPerimeter=0;" parent="XwEBAa-x7R_5Xj_vNGc--96" source="XwEBAa-x7R_5Xj_vNGc--46" target="XwEBAa-x7R_5Xj_vNGc--5" edge="1">
          <mxGeometry relative="1" as="geometry" />
        </mxCell>
        <mxCell id="XwEBAa-x7R_5Xj_vNGc--119" style="edgeStyle=orthogonalEdgeStyle;rounded=0;orthogonalLoop=1;jettySize=auto;html=1;exitX=0.5;exitY=1;exitDx=0;exitDy=0;entryX=0.1;entryY=0.2;entryDx=0;entryDy=0;entryPerimeter=0;curved=1;" parent="XwEBAa-x7R_5Xj_vNGc--96" source="XwEBAa-x7R_5Xj_vNGc--46" target="XwEBAa-x7R_5Xj_vNGc--8" edge="1">
          <mxGeometry relative="1" as="geometry" />
        </mxCell>
        <mxCell id="XwEBAa-x7R_5Xj_vNGc--97" value="" style="group" parent="XwEBAa-x7R_5Xj_vNGc--103" vertex="1" connectable="0">
          <mxGeometry x="660" y="40" width="250" height="230" as="geometry" />
        </mxCell>
        <mxCell id="XwEBAa-x7R_5Xj_vNGc--25" value="" style="rounded=0;whiteSpace=wrap;html=1;fillColor=none;" parent="XwEBAa-x7R_5Xj_vNGc--97" vertex="1">
          <mxGeometry width="250" height="230" as="geometry" />
        </mxCell>
        <mxCell id="XwEBAa-x7R_5Xj_vNGc--81" value="" style="group" parent="XwEBAa-x7R_5Xj_vNGc--97" vertex="1" connectable="0">
          <mxGeometry x="162" y="141" width="60" height="76" as="geometry" />
        </mxCell>
        <mxCell id="XwEBAa-x7R_5Xj_vNGc--23" value="" style="aspect=fixed;sketch=0;html=1;dashed=0;whitespace=wrap;fillColor=#2875E2;strokeColor=#ffffff;points=[[0.005,0.63,0],[0.1,0.2,0],[0.9,0.2,0],[0.5,0,0],[0.995,0.63,0],[0.72,0.99,0],[0.5,1,0],[0.28,0.99,0]];shape=mxgraph.kubernetes.icon2;prIcon=svc" parent="XwEBAa-x7R_5Xj_vNGc--81" vertex="1">
          <mxGeometry x="5" width="50" height="48" as="geometry" />
        </mxCell>
        <mxCell id="XwEBAa-x7R_5Xj_vNGc--53" value="&lt;font style=&quot;font-size: 11px;&quot; face=&quot;Helvetica&quot;&gt;Service&lt;/font&gt;" style="text;html=1;align=center;verticalAlign=middle;whiteSpace=wrap;rounded=0;fontSize=11;" parent="XwEBAa-x7R_5Xj_vNGc--81" vertex="1">
          <mxGeometry y="46" width="60" height="30" as="geometry" />
        </mxCell>
        <mxCell id="XwEBAa-x7R_5Xj_vNGc--82" value="" style="group" parent="XwEBAa-x7R_5Xj_vNGc--97" vertex="1" connectable="0">
          <mxGeometry x="160" y="36" width="60" height="78" as="geometry" />
        </mxCell>
        <mxCell id="XwEBAa-x7R_5Xj_vNGc--21" value="" style="aspect=fixed;sketch=0;html=1;dashed=0;whitespace=wrap;fillColor=#2875E2;strokeColor=#ffffff;points=[[0.005,0.63,0],[0.1,0.2,0],[0.9,0.2,0],[0.5,0,0],[0.995,0.63,0],[0.72,0.99,0],[0.5,1,0],[0.28,0.99,0]];shape=mxgraph.kubernetes.icon2;prIcon=ing" parent="XwEBAa-x7R_5Xj_vNGc--82" vertex="1">
          <mxGeometry x="5" width="50" height="48" as="geometry" />
        </mxCell>
        <mxCell id="XwEBAa-x7R_5Xj_vNGc--51" value="&lt;font style=&quot;font-size: 11px;&quot; face=&quot;Helvetica&quot;&gt;Ingress&lt;/font&gt;" style="text;html=1;align=center;verticalAlign=middle;whiteSpace=wrap;rounded=0;fontSize=11;" parent="XwEBAa-x7R_5Xj_vNGc--82" vertex="1">
          <mxGeometry y="48" width="60" height="30" as="geometry" />
        </mxCell>
        <mxCell id="XwEBAa-x7R_5Xj_vNGc--83" value="" style="group" parent="XwEBAa-x7R_5Xj_vNGc--97" vertex="1" connectable="0">
          <mxGeometry x="35" y="141" width="60" height="78" as="geometry" />
        </mxCell>
        <mxCell id="XwEBAa-x7R_5Xj_vNGc--24" value="" style="aspect=fixed;sketch=0;html=1;dashed=0;whitespace=wrap;fillColor=#2875E2;strokeColor=#ffffff;points=[[0.005,0.63,0],[0.1,0.2,0],[0.9,0.2,0],[0.5,0,0],[0.995,0.63,0],[0.72,0.99,0],[0.5,1,0],[0.28,0.99,0]];shape=mxgraph.kubernetes.icon2;kubernetesLabel=1;prIcon=ep" parent="XwEBAa-x7R_5Xj_vNGc--83" vertex="1">
          <mxGeometry x="5" width="50" height="48" as="geometry" />
        </mxCell>
        <mxCell id="XwEBAa-x7R_5Xj_vNGc--52" value="&lt;font style=&quot;font-size: 11px;&quot; face=&quot;Helvetica&quot;&gt;Endpoint&lt;/font&gt;" style="text;html=1;align=center;verticalAlign=middle;whiteSpace=wrap;rounded=0;fontSize=11;" parent="XwEBAa-x7R_5Xj_vNGc--83" vertex="1">
          <mxGeometry y="48" width="60" height="30" as="geometry" />
        </mxCell>
        <mxCell id="XwEBAa-x7R_5Xj_vNGc--84" value="" style="group" parent="XwEBAa-x7R_5Xj_vNGc--97" vertex="1" connectable="0">
          <mxGeometry x="35" y="36" width="60" height="78" as="geometry" />
        </mxCell>
        <mxCell id="XwEBAa-x7R_5Xj_vNGc--22" value="" style="aspect=fixed;sketch=0;html=1;dashed=0;whitespace=wrap;fillColor=#2875E2;strokeColor=#ffffff;points=[[0.005,0.63,0],[0.1,0.2,0],[0.9,0.2,0],[0.5,0,0],[0.995,0.63,0],[0.72,0.99,0],[0.5,1,0],[0.28,0.99,0]];shape=mxgraph.kubernetes.icon2;prIcon=netpol" parent="XwEBAa-x7R_5Xj_vNGc--84" vertex="1">
          <mxGeometry x="5" width="50" height="48" as="geometry" />
        </mxCell>
        <mxCell id="XwEBAa-x7R_5Xj_vNGc--50" value="&lt;font style=&quot;font-size: 11px;&quot; face=&quot;Helvetica&quot;&gt;Network Policy&lt;/font&gt;" style="text;html=1;align=center;verticalAlign=middle;whiteSpace=wrap;rounded=0;fontSize=11;" parent="XwEBAa-x7R_5Xj_vNGc--84" vertex="1">
          <mxGeometry y="48" width="60" height="30" as="geometry" />
        </mxCell>
        <mxCell id="XwEBAa-x7R_5Xj_vNGc--117" style="edgeStyle=orthogonalEdgeStyle;rounded=0;orthogonalLoop=1;jettySize=auto;html=1;exitX=0.005;exitY=0.63;exitDx=0;exitDy=0;exitPerimeter=0;entryX=0.995;entryY=0.63;entryDx=0;entryDy=0;entryPerimeter=0;" parent="XwEBAa-x7R_5Xj_vNGc--97" source="XwEBAa-x7R_5Xj_vNGc--23" target="XwEBAa-x7R_5Xj_vNGc--24" edge="1">
          <mxGeometry relative="1" as="geometry" />
        </mxCell>
        <mxCell id="XwEBAa-x7R_5Xj_vNGc--98" value="" style="group" parent="XwEBAa-x7R_5Xj_vNGc--103" vertex="1" connectable="0">
          <mxGeometry x="320" y="480" width="240" height="260" as="geometry" />
        </mxCell>
        <mxCell id="XwEBAa-x7R_5Xj_vNGc--19" value="" style="rounded=0;whiteSpace=wrap;html=1;fillColor=none;" parent="XwEBAa-x7R_5Xj_vNGc--98" vertex="1">
          <mxGeometry width="240" height="260" as="geometry" />
        </mxCell>
        <mxCell id="XwEBAa-x7R_5Xj_vNGc--71" value="" style="group" parent="XwEBAa-x7R_5Xj_vNGc--98" vertex="1" connectable="0">
          <mxGeometry x="34.99999999999994" y="154" width="60" height="78" as="geometry" />
        </mxCell>
        <mxCell id="XwEBAa-x7R_5Xj_vNGc--18" value="" style="aspect=fixed;sketch=0;html=1;dashed=0;whitespace=wrap;fillColor=#2875E2;strokeColor=#ffffff;points=[[0.005,0.63,0],[0.1,0.2,0],[0.9,0.2,0],[0.5,0,0],[0.995,0.63,0],[0.72,0.99,0],[0.5,1,0],[0.28,0.99,0]];shape=mxgraph.kubernetes.icon2;kubernetesLabel=1;prIcon=sc" parent="XwEBAa-x7R_5Xj_vNGc--71" vertex="1">
          <mxGeometry x="5.000000000000057" width="50" height="48" as="geometry" />
        </mxCell>
        <mxCell id="XwEBAa-x7R_5Xj_vNGc--55" value="&lt;font style=&quot;font-size: 11px;&quot; face=&quot;Helvetica&quot;&gt;StorageClass&lt;/font&gt;" style="text;html=1;align=center;verticalAlign=middle;whiteSpace=wrap;rounded=0;fontSize=11;" parent="XwEBAa-x7R_5Xj_vNGc--71" vertex="1">
          <mxGeometry y="48" width="60" height="30" as="geometry" />
        </mxCell>
        <mxCell id="XwEBAa-x7R_5Xj_vNGc--73" value="" style="group" parent="XwEBAa-x7R_5Xj_vNGc--98" vertex="1" connectable="0">
          <mxGeometry x="149" y="40" width="60.00000000000006" height="79" as="geometry" />
        </mxCell>
        <mxCell id="XwEBAa-x7R_5Xj_vNGc--16" value="" style="aspect=fixed;sketch=0;html=1;dashed=0;whitespace=wrap;fillColor=#2875E2;strokeColor=#ffffff;points=[[0.005,0.63,0],[0.1,0.2,0],[0.9,0.2,0],[0.5,0,0],[0.995,0.63,0],[0.72,0.99,0],[0.5,1,0],[0.28,0.99,0]];shape=mxgraph.kubernetes.icon2;kubernetesLabel=1;prIcon=vol" parent="XwEBAa-x7R_5Xj_vNGc--73" vertex="1">
          <mxGeometry x="5.000000000000057" width="50" height="48" as="geometry" />
        </mxCell>
        <mxCell id="XwEBAa-x7R_5Xj_vNGc--56" value="&lt;font style=&quot;font-size: 11px;&quot; face=&quot;Helvetica&quot;&gt;Persistent Volume&lt;/font&gt;" style="text;html=1;align=center;verticalAlign=middle;whiteSpace=wrap;rounded=0;fontSize=11;" parent="XwEBAa-x7R_5Xj_vNGc--73" vertex="1">
          <mxGeometry y="49" width="60" height="30" as="geometry" />
        </mxCell>
        <mxCell id="XwEBAa-x7R_5Xj_vNGc--92" value="" style="group" parent="XwEBAa-x7R_5Xj_vNGc--98" vertex="1" connectable="0">
          <mxGeometry x="149" y="154" width="60" height="86" as="geometry" />
        </mxCell>
        <mxCell id="XwEBAa-x7R_5Xj_vNGc--17" value="" style="aspect=fixed;sketch=0;html=1;dashed=0;whitespace=wrap;fillColor=#2875E2;strokeColor=#ffffff;points=[[0.005,0.63,0],[0.1,0.2,0],[0.9,0.2,0],[0.5,0,0],[0.995,0.63,0],[0.72,0.99,0],[0.5,1,0],[0.28,0.99,0]];shape=mxgraph.kubernetes.icon2;kubernetesLabel=1;prIcon=pvc" parent="XwEBAa-x7R_5Xj_vNGc--92" vertex="1">
          <mxGeometry x="5" width="50" height="48" as="geometry" />
        </mxCell>
        <mxCell id="XwEBAa-x7R_5Xj_vNGc--57" value="&lt;font style=&quot;font-size: 11px;&quot; face=&quot;Helvetica&quot;&gt;Persistent Volume Claim&lt;/font&gt;" style="text;html=1;align=center;verticalAlign=middle;whiteSpace=wrap;rounded=0;fontSize=11;" parent="XwEBAa-x7R_5Xj_vNGc--92" vertex="1">
          <mxGeometry y="56" width="60" height="30" as="geometry" />
        </mxCell>
        <mxCell id="XwEBAa-x7R_5Xj_vNGc--116" style="edgeStyle=orthogonalEdgeStyle;rounded=0;orthogonalLoop=1;jettySize=auto;html=1;exitX=0.995;exitY=0.63;exitDx=0;exitDy=0;exitPerimeter=0;entryX=0.005;entryY=0.63;entryDx=0;entryDy=0;entryPerimeter=0;" parent="XwEBAa-x7R_5Xj_vNGc--98" source="XwEBAa-x7R_5Xj_vNGc--18" target="XwEBAa-x7R_5Xj_vNGc--17" edge="1">
          <mxGeometry relative="1" as="geometry" />
        </mxCell>
        <mxCell id="XwEBAa-x7R_5Xj_vNGc--131" style="edgeStyle=orthogonalEdgeStyle;rounded=0;orthogonalLoop=1;jettySize=auto;html=1;exitX=0.5;exitY=1;exitDx=0;exitDy=0;entryX=0.5;entryY=0;entryDx=0;entryDy=0;entryPerimeter=0;" parent="XwEBAa-x7R_5Xj_vNGc--98" source="XwEBAa-x7R_5Xj_vNGc--56" target="XwEBAa-x7R_5Xj_vNGc--17" edge="1">
          <mxGeometry relative="1" as="geometry" />
        </mxCell>
        <mxCell id="XwEBAa-x7R_5Xj_vNGc--99" value="" style="group" parent="XwEBAa-x7R_5Xj_vNGc--103" vertex="1" connectable="0">
          <mxGeometry x="720" y="630" width="310" height="88" as="geometry" />
        </mxCell>
        <mxCell id="XwEBAa-x7R_5Xj_vNGc--68" value="" style="group" parent="XwEBAa-x7R_5Xj_vNGc--99" vertex="1" connectable="0">
          <mxGeometry width="60" height="78" as="geometry" />
        </mxCell>
        <mxCell id="XwEBAa-x7R_5Xj_vNGc--33" value="" style="aspect=fixed;sketch=0;html=1;dashed=0;whitespace=wrap;fillColor=#2875E2;strokeColor=#ffffff;points=[[0.005,0.63,0],[0.1,0.2,0],[0.9,0.2,0],[0.5,0,0],[0.995,0.63,0],[0.72,0.99,0],[0.5,1,0],[0.28,0.99,0]];shape=mxgraph.kubernetes.icon2;prIcon=node" parent="XwEBAa-x7R_5Xj_vNGc--68" vertex="1">
          <mxGeometry x="5" width="50" height="48" as="geometry" />
        </mxCell>
        <mxCell id="XwEBAa-x7R_5Xj_vNGc--58" value="&lt;font style=&quot;font-size: 11px;&quot; face=&quot;Helvetica&quot;&gt;Node&lt;/font&gt;" style="text;html=1;align=center;verticalAlign=middle;whiteSpace=wrap;rounded=0;fontSize=11;" parent="XwEBAa-x7R_5Xj_vNGc--68" vertex="1">
          <mxGeometry y="48" width="60" height="30" as="geometry" />
        </mxCell>
        <mxCell id="XwEBAa-x7R_5Xj_vNGc--94" value="" style="group" parent="XwEBAa-x7R_5Xj_vNGc--99" vertex="1" connectable="0">
          <mxGeometry x="117" width="60" height="86" as="geometry" />
        </mxCell>
        <mxCell id="XwEBAa-x7R_5Xj_vNGc--34" value="" style="aspect=fixed;sketch=0;html=1;dashed=0;whitespace=wrap;fillColor=#2875E2;strokeColor=#ffffff;points=[[0.005,0.63,0],[0.1,0.2,0],[0.9,0.2,0],[0.5,0,0],[0.995,0.63,0],[0.72,0.99,0],[0.5,1,0],[0.28,0.99,0]];shape=mxgraph.kubernetes.icon2;prIcon=crd" parent="XwEBAa-x7R_5Xj_vNGc--94" vertex="1">
          <mxGeometry x="5" width="50" height="48" as="geometry" />
        </mxCell>
        <mxCell id="XwEBAa-x7R_5Xj_vNGc--59" value="&lt;font style=&quot;font-size: 11px;&quot; face=&quot;Helvetica&quot;&gt;Custom Resource Definition&lt;/font&gt;" style="text;html=1;align=center;verticalAlign=middle;whiteSpace=wrap;rounded=0;fontSize=11;" parent="XwEBAa-x7R_5Xj_vNGc--94" vertex="1">
          <mxGeometry y="56" width="60" height="30" as="geometry" />
        </mxCell>
        <mxCell id="XwEBAa-x7R_5Xj_vNGc--95" value="" style="group" parent="XwEBAa-x7R_5Xj_vNGc--99" vertex="1" connectable="0">
          <mxGeometry x="250" width="60" height="88" as="geometry" />
        </mxCell>
        <mxCell id="XwEBAa-x7R_5Xj_vNGc--35" value="" style="aspect=fixed;sketch=0;html=1;dashed=0;whitespace=wrap;fillColor=#2875E2;strokeColor=#ffffff;points=[[0.005,0.63,0],[0.1,0.2,0],[0.9,0.2,0],[0.5,0,0],[0.995,0.63,0],[0.72,0.99,0],[0.5,1,0],[0.28,0.99,0]];shape=mxgraph.kubernetes.icon2;kubernetesLabel=1;prIcon=psp" parent="XwEBAa-x7R_5Xj_vNGc--95" vertex="1">
          <mxGeometry x="5" width="50" height="48" as="geometry" />
        </mxCell>
        <mxCell id="XwEBAa-x7R_5Xj_vNGc--60" value="&lt;font style=&quot;font-size: 11px;&quot; face=&quot;Helvetica&quot;&gt;Pod Security Policy&lt;/font&gt;" style="text;html=1;align=center;verticalAlign=middle;whiteSpace=wrap;rounded=0;fontSize=11;" parent="XwEBAa-x7R_5Xj_vNGc--95" vertex="1">
          <mxGeometry y="58" width="60" height="30" as="geometry" />
        </mxCell>
        <mxCell id="XwEBAa-x7R_5Xj_vNGc--101" value="" style="group" parent="XwEBAa-x7R_5Xj_vNGc--103" vertex="1" connectable="0">
          <mxGeometry x="970" y="55" width="60" height="185" as="geometry" />
        </mxCell>
        <mxCell id="XwEBAa-x7R_5Xj_vNGc--79" value="" style="group" parent="XwEBAa-x7R_5Xj_vNGc--101" vertex="1" connectable="0">
          <mxGeometry y="109" width="60" height="76" as="geometry" />
        </mxCell>
        <mxCell id="XwEBAa-x7R_5Xj_vNGc--38" value="" style="aspect=fixed;sketch=0;html=1;dashed=0;whitespace=wrap;fillColor=#2875E2;strokeColor=#ffffff;points=[[0.005,0.63,0],[0.1,0.2,0],[0.9,0.2,0],[0.5,0,0],[0.995,0.63,0],[0.72,0.99,0],[0.5,1,0],[0.28,0.99,0]];shape=mxgraph.kubernetes.icon2;prIcon=quota" parent="XwEBAa-x7R_5Xj_vNGc--79" vertex="1">
          <mxGeometry x="5" width="50" height="48" as="geometry" />
        </mxCell>
        <mxCell id="XwEBAa-x7R_5Xj_vNGc--67" value="&lt;font style=&quot;font-size: 11px;&quot; face=&quot;Helvetica&quot;&gt;Quota&lt;/font&gt;" style="text;html=1;align=center;verticalAlign=middle;whiteSpace=wrap;rounded=0;fontSize=11;" parent="XwEBAa-x7R_5Xj_vNGc--79" vertex="1">
          <mxGeometry y="46" width="60" height="30" as="geometry" />
        </mxCell>
        <mxCell id="XwEBAa-x7R_5Xj_vNGc--80" value="" style="group" parent="XwEBAa-x7R_5Xj_vNGc--101" vertex="1" connectable="0">
          <mxGeometry width="60" height="78" as="geometry" />
        </mxCell>
        <mxCell id="XwEBAa-x7R_5Xj_vNGc--37" value="" style="aspect=fixed;sketch=0;html=1;dashed=0;whitespace=wrap;fillColor=#2875E2;strokeColor=#ffffff;points=[[0.005,0.63,0],[0.1,0.2,0],[0.9,0.2,0],[0.5,0,0],[0.995,0.63,0],[0.72,0.99,0],[0.5,1,0],[0.28,0.99,0]];shape=mxgraph.kubernetes.icon2;prIcon=limits" parent="XwEBAa-x7R_5Xj_vNGc--80" vertex="1">
          <mxGeometry x="5" width="50" height="48" as="geometry" />
        </mxCell>
        <mxCell id="XwEBAa-x7R_5Xj_vNGc--66" value="&lt;font style=&quot;font-size: 11px;&quot; face=&quot;Helvetica&quot;&gt;Limits&lt;/font&gt;" style="text;html=1;align=center;verticalAlign=middle;whiteSpace=wrap;rounded=0;fontSize=11;" parent="XwEBAa-x7R_5Xj_vNGc--80" vertex="1">
          <mxGeometry y="48" width="60" height="30" as="geometry" />
        </mxCell>
        <mxCell id="XwEBAa-x7R_5Xj_vNGc--106" style="edgeStyle=orthogonalEdgeStyle;rounded=0;orthogonalLoop=1;jettySize=auto;html=1;entryX=0.005;entryY=0.63;entryDx=0;entryDy=0;entryPerimeter=0;curved=1;dashed=1;fillColor=#6a00ff;strokeColor=#3700CC;" parent="XwEBAa-x7R_5Xj_vNGc--103" source="XwEBAa-x7R_5Xj_vNGc--2" target="XwEBAa-x7R_5Xj_vNGc--15" edge="1">
          <mxGeometry relative="1" as="geometry" />
        </mxCell>
        <mxCell id="XwEBAa-x7R_5Xj_vNGc--108" style="edgeStyle=orthogonalEdgeStyle;rounded=0;orthogonalLoop=1;jettySize=auto;html=1;exitX=0.995;exitY=0.63;exitDx=0;exitDy=0;exitPerimeter=0;entryX=0.005;entryY=0.63;entryDx=0;entryDy=0;entryPerimeter=0;curved=1;dashed=1;fillColor=#6a00ff;strokeColor=#3700CC;" parent="XwEBAa-x7R_5Xj_vNGc--103" source="XwEBAa-x7R_5Xj_vNGc--6" target="XwEBAa-x7R_5Xj_vNGc--15" edge="1">
          <mxGeometry relative="1" as="geometry" />
        </mxCell>
        <mxCell id="XwEBAa-x7R_5Xj_vNGc--109" style="edgeStyle=orthogonalEdgeStyle;rounded=0;orthogonalLoop=1;jettySize=auto;html=1;exitX=0.995;exitY=0.63;exitDx=0;exitDy=0;exitPerimeter=0;curved=1;entryX=0.005;entryY=0.63;entryDx=0;entryDy=0;entryPerimeter=0;dashed=1;fillColor=#6a00ff;strokeColor=#3700CC;" parent="XwEBAa-x7R_5Xj_vNGc--103" source="XwEBAa-x7R_5Xj_vNGc--3" target="XwEBAa-x7R_5Xj_vNGc--15" edge="1">
          <mxGeometry relative="1" as="geometry">
            <mxPoint x="470" y="269.5185185185185" as="targetPoint" />
          </mxGeometry>
        </mxCell>
        <mxCell id="XwEBAa-x7R_5Xj_vNGc--110" style="edgeStyle=orthogonalEdgeStyle;rounded=0;orthogonalLoop=1;jettySize=auto;html=1;exitX=0.995;exitY=0.63;exitDx=0;exitDy=0;exitPerimeter=0;entryX=0.005;entryY=0.63;entryDx=0;entryDy=0;entryPerimeter=0;curved=1;dashed=1;fillColor=#6a00ff;strokeColor=#3700CC;" parent="XwEBAa-x7R_5Xj_vNGc--103" source="XwEBAa-x7R_5Xj_vNGc--8" target="XwEBAa-x7R_5Xj_vNGc--15" edge="1">
          <mxGeometry relative="1" as="geometry" />
        </mxCell>
        <mxCell id="XwEBAa-x7R_5Xj_vNGc--112" style="edgeStyle=orthogonalEdgeStyle;rounded=0;orthogonalLoop=1;jettySize=auto;html=1;exitX=0.995;exitY=0.63;exitDx=0;exitDy=0;exitPerimeter=0;entryX=0.005;entryY=0.63;entryDx=0;entryDy=0;entryPerimeter=0;curved=1;dashed=1;fillColor=#6a00ff;strokeColor=#3700CC;" parent="XwEBAa-x7R_5Xj_vNGc--103" source="XwEBAa-x7R_5Xj_vNGc--8" target="XwEBAa-x7R_5Xj_vNGc--16" edge="1">
          <mxGeometry relative="1" as="geometry" />
        </mxCell>
        <mxCell id="XwEBAa-x7R_5Xj_vNGc--120" style="edgeStyle=orthogonalEdgeStyle;rounded=0;orthogonalLoop=1;jettySize=auto;html=1;exitX=0.5;exitY=0;exitDx=0;exitDy=0;exitPerimeter=0;curved=1;entryX=0.5;entryY=1;entryDx=0;entryDy=0;" parent="XwEBAa-x7R_5Xj_vNGc--103" source="XwEBAa-x7R_5Xj_vNGc--15" target="XwEBAa-x7R_5Xj_vNGc--48" edge="1">
          <mxGeometry relative="1" as="geometry">
            <mxPoint x="530" y="140" as="targetPoint" />
            <Array as="points">
              <mxPoint x="500" y="190" />
              <mxPoint x="530" y="190" />
              <mxPoint x="530" y="160" />
              <mxPoint x="531" y="160" />
            </Array>
          </mxGeometry>
        </mxCell>
        <mxCell id="XwEBAa-x7R_5Xj_vNGc--121" style="edgeStyle=orthogonalEdgeStyle;rounded=0;orthogonalLoop=1;jettySize=auto;html=1;exitX=0.5;exitY=0;exitDx=0;exitDy=0;exitPerimeter=0;curved=1;" parent="XwEBAa-x7R_5Xj_vNGc--103" source="XwEBAa-x7R_5Xj_vNGc--15" target="XwEBAa-x7R_5Xj_vNGc--47" edge="1">
          <mxGeometry relative="1" as="geometry">
            <mxPoint x="452" y="140" as="targetPoint" />
            <Array as="points">
              <mxPoint x="500" y="190" />
              <mxPoint x="452" y="190" />
            </Array>
          </mxGeometry>
        </mxCell>
        <mxCell id="XwEBAa-x7R_5Xj_vNGc--123" style="edgeStyle=orthogonalEdgeStyle;rounded=0;orthogonalLoop=1;jettySize=auto;html=1;exitX=0.5;exitY=1;exitDx=0;exitDy=0;entryX=0.5;entryY=0;entryDx=0;entryDy=0;entryPerimeter=0;curved=1;" parent="XwEBAa-x7R_5Xj_vNGc--103" source="XwEBAa-x7R_5Xj_vNGc--49" target="XwEBAa-x7R_5Xj_vNGc--16" edge="1">
          <mxGeometry relative="1" as="geometry" />
        </mxCell>
        <mxCell id="XwEBAa-x7R_5Xj_vNGc--124" style="edgeStyle=orthogonalEdgeStyle;rounded=0;orthogonalLoop=1;jettySize=auto;html=1;exitX=0.005;exitY=0.63;exitDx=0;exitDy=0;exitPerimeter=0;curved=1;" parent="XwEBAa-x7R_5Xj_vNGc--103" source="XwEBAa-x7R_5Xj_vNGc--22" edge="1">
          <mxGeometry relative="1" as="geometry">
            <mxPoint x="520" y="250" as="targetPoint" />
            <Array as="points">
              <mxPoint x="700" y="180" />
              <mxPoint x="520" y="180" />
            </Array>
          </mxGeometry>
        </mxCell>
        <mxCell id="XwEBAa-x7R_5Xj_vNGc--125" style="edgeStyle=orthogonalEdgeStyle;rounded=0;orthogonalLoop=1;jettySize=auto;html=1;exitX=0.005;exitY=0.63;exitDx=0;exitDy=0;exitPerimeter=0;entryX=0.9;entryY=0.2;entryDx=0;entryDy=0;entryPerimeter=0;curved=1;" parent="XwEBAa-x7R_5Xj_vNGc--103" source="XwEBAa-x7R_5Xj_vNGc--24" target="XwEBAa-x7R_5Xj_vNGc--15" edge="1">
          <mxGeometry relative="1" as="geometry" />
        </mxCell>
        <mxCell id="XwEBAa-x7R_5Xj_vNGc--126" style="edgeStyle=orthogonalEdgeStyle;rounded=0;orthogonalLoop=1;jettySize=auto;html=1;exitX=0.995;exitY=0.63;exitDx=0;exitDy=0;exitPerimeter=0;entryX=0.005;entryY=0.63;entryDx=0;entryDy=0;entryPerimeter=0;curved=1;" parent="XwEBAa-x7R_5Xj_vNGc--103" source="XwEBAa-x7R_5Xj_vNGc--15" target="XwEBAa-x7R_5Xj_vNGc--32" edge="1">
          <mxGeometry relative="1" as="geometry" />
        </mxCell>
        <mxCell id="XwEBAa-x7R_5Xj_vNGc--36" value="" style="rounded=0;whiteSpace=wrap;html=1;fillColor=none;" parent="XwEBAa-x7R_5Xj_vNGc--103" vertex="1">
          <mxGeometry x="640" y="310" width="440" height="250" as="geometry" />
        </mxCell>
        <mxCell id="XwEBAa-x7R_5Xj_vNGc--74" value="" style="group" parent="XwEBAa-x7R_5Xj_vNGc--103" vertex="1" connectable="0">
          <mxGeometry x="675" y="465" width="60" height="78" as="geometry" />
        </mxCell>
        <mxCell id="XwEBAa-x7R_5Xj_vNGc--28" value="" style="aspect=fixed;sketch=0;html=1;dashed=0;whitespace=wrap;fillColor=#2875E2;strokeColor=#ffffff;points=[[0.005,0.63,0],[0.1,0.2,0],[0.9,0.2,0],[0.5,0,0],[0.995,0.63,0],[0.72,0.99,0],[0.5,1,0],[0.28,0.99,0]];shape=mxgraph.kubernetes.icon2;prIcon=role" parent="XwEBAa-x7R_5Xj_vNGc--74" vertex="1">
          <mxGeometry x="5" width="50" height="48" as="geometry" />
        </mxCell>
        <mxCell id="XwEBAa-x7R_5Xj_vNGc--61" value="&lt;font style=&quot;font-size: 11px;&quot; face=&quot;Helvetica&quot;&gt;Role&lt;/font&gt;" style="text;html=1;align=center;verticalAlign=middle;whiteSpace=wrap;rounded=0;fontSize=11;" parent="XwEBAa-x7R_5Xj_vNGc--74" vertex="1">
          <mxGeometry y="48" width="60" height="30" as="geometry" />
        </mxCell>
        <mxCell id="XwEBAa-x7R_5Xj_vNGc--75" value="" style="group" parent="XwEBAa-x7R_5Xj_vNGc--103" vertex="1" connectable="0">
          <mxGeometry x="792" y="465" width="60" height="78" as="geometry" />
        </mxCell>
        <mxCell id="XwEBAa-x7R_5Xj_vNGc--30" value="" style="aspect=fixed;sketch=0;html=1;dashed=0;whitespace=wrap;fillColor=#2875E2;strokeColor=#ffffff;points=[[0.005,0.63,0],[0.1,0.2,0],[0.9,0.2,0],[0.5,0,0],[0.995,0.63,0],[0.72,0.99,0],[0.5,1,0],[0.28,0.99,0]];shape=mxgraph.kubernetes.icon2;prIcon=rb" parent="XwEBAa-x7R_5Xj_vNGc--75" vertex="1">
          <mxGeometry x="5" width="50" height="48" as="geometry" />
        </mxCell>
        <mxCell id="XwEBAa-x7R_5Xj_vNGc--62" value="&lt;font style=&quot;font-size: 11px;&quot; face=&quot;Helvetica&quot;&gt;Role Binding&lt;/font&gt;" style="text;html=1;align=center;verticalAlign=middle;whiteSpace=wrap;rounded=0;fontSize=11;" parent="XwEBAa-x7R_5Xj_vNGc--75" vertex="1">
          <mxGeometry y="48" width="60" height="30" as="geometry" />
        </mxCell>
        <mxCell id="XwEBAa-x7R_5Xj_vNGc--76" value="" style="group" parent="XwEBAa-x7R_5Xj_vNGc--103" vertex="1" connectable="0">
          <mxGeometry x="792" y="328" width="60" height="78" as="geometry" />
        </mxCell>
        <mxCell id="XwEBAa-x7R_5Xj_vNGc--32" value="" style="aspect=fixed;sketch=0;html=1;dashed=0;whitespace=wrap;fillColor=#2875E2;strokeColor=#ffffff;points=[[0.005,0.63,0],[0.1,0.2,0],[0.9,0.2,0],[0.5,0,0],[0.995,0.63,0],[0.72,0.99,0],[0.5,1,0],[0.28,0.99,0]];shape=mxgraph.kubernetes.icon2;prIcon=sa" parent="XwEBAa-x7R_5Xj_vNGc--76" vertex="1">
          <mxGeometry x="5" width="50" height="48" as="geometry" />
        </mxCell>
        <mxCell id="XwEBAa-x7R_5Xj_vNGc--63" value="&lt;font style=&quot;font-size: 11px;&quot; face=&quot;Helvetica&quot;&gt;Service Account&lt;/font&gt;" style="text;html=1;align=center;verticalAlign=middle;whiteSpace=wrap;rounded=0;fontSize=11;" parent="XwEBAa-x7R_5Xj_vNGc--76" vertex="1">
          <mxGeometry y="48" width="60" height="30" as="geometry" />
        </mxCell>
        <mxCell id="XwEBAa-x7R_5Xj_vNGc--77" value="" style="group" parent="XwEBAa-x7R_5Xj_vNGc--103" vertex="1" connectable="0">
          <mxGeometry x="975" y="464" width="60" height="80" as="geometry" />
        </mxCell>
        <mxCell id="XwEBAa-x7R_5Xj_vNGc--31" value="" style="aspect=fixed;sketch=0;html=1;dashed=0;whitespace=wrap;fillColor=#2875E2;strokeColor=#ffffff;points=[[0.005,0.63,0],[0.1,0.2,0],[0.9,0.2,0],[0.5,0,0],[0.995,0.63,0],[0.72,0.99,0],[0.5,1,0],[0.28,0.99,0]];shape=mxgraph.kubernetes.icon2;prIcon=c_role" parent="XwEBAa-x7R_5Xj_vNGc--77" vertex="1">
          <mxGeometry x="5" width="50" height="48" as="geometry" />
        </mxCell>
        <mxCell id="XwEBAa-x7R_5Xj_vNGc--65" value="&lt;font style=&quot;font-size: 11px;&quot; face=&quot;Helvetica&quot;&gt;Cluster Role&lt;/font&gt;" style="text;html=1;align=center;verticalAlign=middle;whiteSpace=wrap;rounded=0;fontSize=11;" parent="XwEBAa-x7R_5Xj_vNGc--77" vertex="1">
          <mxGeometry y="50" width="60" height="30" as="geometry" />
        </mxCell>
        <mxCell id="XwEBAa-x7R_5Xj_vNGc--93" value="" style="group" parent="XwEBAa-x7R_5Xj_vNGc--103" vertex="1" connectable="0">
          <mxGeometry x="975" y="328" width="60" height="85" as="geometry" />
        </mxCell>
        <mxCell id="XwEBAa-x7R_5Xj_vNGc--29" value="" style="aspect=fixed;sketch=0;html=1;dashed=0;whitespace=wrap;fillColor=#2875E2;strokeColor=#ffffff;points=[[0.005,0.63,0],[0.1,0.2,0],[0.9,0.2,0],[0.5,0,0],[0.995,0.63,0],[0.72,0.99,0],[0.5,1,0],[0.28,0.99,0]];shape=mxgraph.kubernetes.icon2;kubernetesLabel=1;prIcon=crb" parent="XwEBAa-x7R_5Xj_vNGc--93" vertex="1">
          <mxGeometry x="5" width="50" height="48" as="geometry" />
        </mxCell>
        <mxCell id="XwEBAa-x7R_5Xj_vNGc--64" value="&lt;font style=&quot;font-size: 11px;&quot; face=&quot;Helvetica&quot;&gt;Cluster Role Binding&lt;/font&gt;" style="text;html=1;align=center;verticalAlign=middle;whiteSpace=wrap;rounded=0;fontSize=11;" parent="XwEBAa-x7R_5Xj_vNGc--93" vertex="1">
          <mxGeometry y="55" width="60" height="30" as="geometry" />
        </mxCell>
        <mxCell id="XwEBAa-x7R_5Xj_vNGc--127" style="edgeStyle=orthogonalEdgeStyle;rounded=0;orthogonalLoop=1;jettySize=auto;html=1;exitX=0.5;exitY=0;exitDx=0;exitDy=0;exitPerimeter=0;entryX=0.5;entryY=1;entryDx=0;entryDy=0;" parent="XwEBAa-x7R_5Xj_vNGc--103" source="XwEBAa-x7R_5Xj_vNGc--30" target="XwEBAa-x7R_5Xj_vNGc--63" edge="1">
          <mxGeometry relative="1" as="geometry" />
        </mxCell>
        <mxCell id="XwEBAa-x7R_5Xj_vNGc--128" style="edgeStyle=orthogonalEdgeStyle;rounded=0;orthogonalLoop=1;jettySize=auto;html=1;exitX=0.005;exitY=0.63;exitDx=0;exitDy=0;exitPerimeter=0;entryX=0.995;entryY=0.63;entryDx=0;entryDy=0;entryPerimeter=0;" parent="XwEBAa-x7R_5Xj_vNGc--103" source="XwEBAa-x7R_5Xj_vNGc--30" target="XwEBAa-x7R_5Xj_vNGc--28" edge="1">
          <mxGeometry relative="1" as="geometry" />
        </mxCell>
        <mxCell id="XwEBAa-x7R_5Xj_vNGc--129" style="edgeStyle=orthogonalEdgeStyle;rounded=0;orthogonalLoop=1;jettySize=auto;html=1;exitX=0.005;exitY=0.63;exitDx=0;exitDy=0;exitPerimeter=0;entryX=0.995;entryY=0.63;entryDx=0;entryDy=0;entryPerimeter=0;curved=1;" parent="XwEBAa-x7R_5Xj_vNGc--103" source="XwEBAa-x7R_5Xj_vNGc--29" target="XwEBAa-x7R_5Xj_vNGc--32" edge="1">
          <mxGeometry relative="1" as="geometry" />
        </mxCell>
        <mxCell id="XwEBAa-x7R_5Xj_vNGc--130" style="edgeStyle=orthogonalEdgeStyle;rounded=0;orthogonalLoop=1;jettySize=auto;html=1;exitX=0.5;exitY=1;exitDx=0;exitDy=0;entryX=0.5;entryY=0;entryDx=0;entryDy=0;entryPerimeter=0;curved=1;" parent="XwEBAa-x7R_5Xj_vNGc--103" source="XwEBAa-x7R_5Xj_vNGc--64" target="XwEBAa-x7R_5Xj_vNGc--31" edge="1">
          <mxGeometry relative="1" as="geometry" />
        </mxCell>
      </root>
    </mxGraphModel>
  </diagram>
</mxfile>
